<svg xmlns="http://www.w3.org/2000/svg" id="Layer_1" data-name="Layer 1" viewBox="0 0 24 24" width="512" height="512">
  <path fill="#e18a00" d="m5,6c1.654,0,3-1.346,3-3S6.654,0,5,0s-3,1.346-3,3,1.346,3,3,3Zm0-5c1.103,0,2,.897,2,2s-.897,2-2,2-2-.897-2-2,.897-2,2-2Zm.5,8c-2.481,0-4.5,2.019-4.5,4.5,0,.276-.224.5-.5.5s-.5-.224-.5-.5c0-3.032,2.467-5.5,5.5-5.5.37,0,.74.037,1.099.109.271.055.446.318.391.59-.055.27-.323.446-.589.391-.294-.06-.597-.09-.901-.09Zm8.5-3c1.654,0,3-1.346,3-3s-1.346-3-3-3-3,1.346-3,3,1.346,3,3,3Zm0-5c1.103,0,2,.897,2,2s-.897,2-2,2-2-.897-2-2,.897-2,2-2Zm-.5,7c3.033,0,5.5,2.468,5.5,5.5,0,.276-.224.5-.5.5s-.5-.224-.5-.5c0-2.481-2.019-4.5-4.5-4.5-.304,0-.607.03-.901.09-.267.059-.534-.121-.589-.391-.055-.271.121-.535.391-.59.359-.072.729-.109,1.099-.109Zm-7,5c0,1.654,1.346,3,3,3s3-1.346,3-3-1.346-3-3-3-3,1.346-3,3Zm3-2c1.103,0,2,.897,2,2s-.897,2-2,2-2-.897-2-2,.897-2,2-2Zm5.5,12.5c0,.276-.224.5-.5.5s-.5-.224-.5-.5c0-2.481-2.019-4.5-4.5-4.5s-4.5,2.019-4.5,4.5c0,.276-.224.5-.5.5s-.5-.224-.5-.5c0-3.032,2.467-5.5,5.5-5.5s5.5,2.468,5.5,5.5Zm9-4c0,.276-.224.5-.5.5h-3.5v3.5c0,.276-.224.5-.5.5s-.5-.224-.5-.5v-3.5h-3.5c-.276,0-.5-.224-.5-.5s.224-.5.5-.5h3.5v-3.5c0-.276.224-.5.5-.5s.5.224.5.5v3.5h3.5c.276,0,.5.224.5.5Z"/>
</svg>

